<?xml version="1.0" standalone="no"?>
<!DOCTYPE svg PUBLIC "-//W3C//DTD SVG 20010904//EN"
 "http://www.w3.org/TR/2001/REC-SVG-20010904/DTD/svg10.dtd">
<svg version="1.0" xmlns="http://www.w3.org/2000/svg"
 width="395.000000pt" height="387.000000pt" viewBox="0 0 395.000000 387.000000"
 preserveAspectRatio="xMidYMid meet">

<g transform="translate(0.000000,387.000000) scale(0.100000,-0.100000)"
fill="#000000" stroke="none">
<path d="M0 3295 c0 -482 2 -575 14 -575 27 0 39 33 53 140 8 67 16 77 37 45
12 -17 19 -50 20 -88 2 -72 17 -87 100 -106 34 -7 56 -18 56 -26 0 -23 -53
-32 -167 -27 l-113 5 0 -325 0 -324 130 -1 c120 -1 133 -2 165 -24 44 -30 46
-68 9 -146 -23 -50 -24 -56 -10 -72 21 -23 20 -26 -5 -49 -13 -13 -36 -20 -65
-20 -25 -1 -49 -4 -54 -7 -5 -3 -18 -1 -29 5 -32 17 -121 17 -131 0 -16 -25
-12 -149 5 -166 8 -9 15 -11 15 -6 0 6 26 13 58 16 31 3 78 8 103 11 45 7 119
-14 119 -32 -1 -27 -21 -37 -74 -35 -40 2 -56 -1 -57 -10 0 -7 -2 -43 -4 -79
-2 -36 0 -71 4 -78 4 -6 25 -14 47 -18 40 -6 64 -19 64 -34 0 -17 -83 -30
-152 -25 -78 7 -101 -3 -92 -38 3 -15 -3 -28 -20 -44 -26 -22 -26 -24 -26
-172 0 -169 3 -173 64 -120 37 33 51 81 47 152 -2 32 2 39 28 52 35 19 139 21
175 4 31 -14 40 -38 31 -86 -9 -46 -21 -62 -50 -62 -36 0 -56 -11 -65 -36 -12
-32 -3 -53 29 -66 25 -10 25 -11 -34 -39 -50 -25 -74 -30 -142 -32 -72 -2 -83
-4 -83 -19 0 -11 8 -18 19 -18 10 0 32 -7 47 -15 16 -8 40 -15 52 -15 41 0 18
-23 -43 -43 -49 -17 -55 -21 -40 -30 32 -18 92 -17 165 2 84 22 115 19 97 -10
-7 -12 -23 -19 -42 -19 -16 0 -41 -9 -54 -19 -22 -17 -23 -23 -19 -96 3 -66 7
-80 26 -96 13 -10 30 -15 38 -12 25 10 64 -6 64 -26 0 -38 -29 -54 -84 -46
-28 4 -90 9 -138 10 l-88 3 0 -154 0 -154 60 0 59 0 7 35 c9 49 0 63 -41 67
-62 5 -43 23 34 30 41 4 84 14 95 21 33 22 72 28 102 17 l28 -11 -26 -26 c-15
-14 -43 -29 -64 -32 -33 -5 -38 -10 -50 -51 -8 -25 -14 -46 -14 -47 0 -2 846
-3 1880 -3 l1880 0 0 1935 0 1935 -1975 0 -1975 0 0 -575z m128 -125 c3 -19 0
-21 -18 -15 -13 4 -29 8 -36 9 -24 4 -27 16 -9 36 16 18 21 19 39 6 12 -7 22
-23 24 -36z m62 -16 c0 -2 -7 -4 -15 -4 -8 0 -15 4 -15 10 0 5 7 7 15 4 8 -4
15 -8 15 -10z m1636 -659 c26 -14 52 -25 59 -25 18 0 81 -62 102 -100 11 -19
27 -57 37 -85 10 -27 21 -59 26 -70 5 -11 18 -41 29 -67 12 -26 21 -51 21 -57
0 -15 -53 -46 -200 -114 -36 -17 -52 -37 -82 -100 -18 -37 -30 -82 -35 -129
-3 -40 -12 -83 -20 -97 -8 -16 -13 -60 -13 -111 l0 -85 -45 -27 c-38 -23 -49
-26 -65 -16 -10 7 -23 9 -27 5 -10 -10 16 -27 42 -27 11 0 25 -10 30 -22 12
-26 76 -43 105 -28 10 6 28 10 39 10 12 0 21 4 21 9 0 5 13 14 29 19 35 12 38
31 37 207 -1 93 -5 136 -15 151 -15 22 -8 74 9 74 6 0 13 -14 17 -31 4 -23 12
-31 34 -36 15 -3 30 -11 33 -18 3 -9 18 -12 40 -11 20 2 36 0 36 -3 0 -8 76
-38 117 -46 54 -11 59 -27 29 -94 -14 -32 -26 -63 -26 -69 0 -6 -6 -17 -13
-24 -37 -39 -67 -81 -62 -88 2 -4 -4 -15 -15 -25 -11 -10 -20 -29 -20 -42 0
-26 -3 -28 -29 -11 -15 9 -31 5 -92 -25 l-74 -36 -125 2 c-69 1 -129 -1 -135
-6 -5 -4 -21 -16 -34 -27 -13 -11 -37 -20 -52 -20 -38 0 -29 -22 16 -39 19 -7
35 -19 35 -27 0 -26 39 -93 63 -106 32 -18 42 -19 147 -24 120 -6 132 -9 148
-34 10 -17 10 -24 -4 -45 -9 -14 -23 -25 -30 -25 -8 0 -20 -11 -26 -25 -6 -14
-14 -25 -18 -25 -3 0 -22 -13 -40 -30 -33 -29 -61 -36 -129 -30 -13 1 -27 -3
-31 -9 -7 -13 -63 2 -90 24 -8 7 -23 15 -32 18 -10 4 -34 30 -53 59 -19 29
-51 73 -70 98 -45 59 -102 171 -121 240 -9 30 -22 108 -29 174 -8 65 -18 123
-24 129 -8 8 -11 5 -11 -8 0 -15 -3 -16 -12 -7 -10 10 -10 17 -1 31 10 16 9
22 -3 32 -8 7 -21 24 -28 38 -16 32 -28 141 -15 141 5 0 9 -9 9 -20 0 -11 7
-20 15 -20 10 0 15 10 15 29 0 16 7 34 16 42 25 21 44 65 44 104 0 20 7 51 14
70 13 31 19 35 50 35 34 0 111 -24 130 -41 5 -4 -8 -10 -28 -13 -20 -3 -51 -8
-70 -11 -32 -5 -34 -7 -38 -57 -5 -47 -2 -56 26 -91 l31 -39 75 6 c106 9 150
22 150 46 0 12 7 20 16 20 35 0 42 22 24 80 -15 49 -23 60 -73 93 -64 43 -151
77 -198 77 -29 0 -31 2 -24 28 11 43 62 142 105 202 22 30 47 69 56 87 18 36
79 90 139 121 54 28 104 27 161 -3z m-1599 -26 c14 -14 -3 -35 -33 -41 -15 -3
-21 -16 -28 -71 -11 -88 0 -117 46 -117 59 0 78 -10 74 -36 -8 -41 -16 -47
-59 -40 -23 4 -46 11 -52 15 -5 5 -24 8 -41 8 -18 0 -46 6 -63 13 l-32 13 27
28 c32 33 28 68 -12 94 l-26 17 27 28 c16 17 27 39 27 58 1 27 5 31 32 35 65
8 102 7 113 -4z m2503 -9 c37 -37 16 -80 -38 -80 -16 0 -22 9 -27 40 -4 21 -4
44 0 50 10 16 43 12 65 -10z m-2170 -300 c0 -11 -4 -20 -10 -20 -5 0 -10 9
-10 20 0 11 5 20 10 20 6 0 10 -9 10 -20z m-420 -39 c0 -5 9 -11 20 -14 24 -6
27 -45 5 -53 -8 -4 -31 -3 -50 0 -39 8 -45 25 -17 55 18 20 42 27 42 12z
m2370 -108 c0 -52 -4 -60 -26 -45 -14 9 -27 93 -18 116 6 16 8 16 25 0 14 -13
19 -31 19 -71z m-1304 -81 c-13 -99 -47 -78 -54 35 l-5 77 33 -32 c30 -31 32
-36 26 -80z m1254 34 c0 -5 -7 -3 -15 4 -8 7 -12 17 -9 22 7 10 24 -9 24 -26z
m240 -5 c5 -11 9 -50 9 -88 l-2 -68 -7 58 c-10 81 -24 91 -61 47 l-30 -35 7
35 c8 44 11 50 38 60 31 13 34 12 46 -9z m-555 -11 c-11 -5 -27 -9 -35 -9 -13
-1 -13 0 0 9 8 5 24 9 35 9 l20 0 -20 -9z m208 -55 c21 -25 51 -52 67 -60 23
-12 31 -25 41 -71 7 -31 19 -58 26 -61 15 -6 17 -35 4 -61 -8 -16 -31 -125
-31 -150 0 -20 38 -13 79 14 35 23 39 29 34 57 -6 38 27 87 58 87 10 0 19 3
19 8 0 4 12 21 26 37 l25 30 -5 -48 c-8 -71 -57 -139 -123 -173 -29 -14 -59
-36 -66 -49 -6 -12 -25 -42 -41 -66 -26 -38 -78 -175 -90 -234 -17 -82 -32
-138 -62 -234 -4 -11 -7 -11 -20 0 -12 10 -15 24 -10 57 7 53 2 51 -78 -35
-33 -36 -68 -63 -79 -63 -14 0 -17 4 -12 18 11 25 24 106 33 203 7 77 13 95
50 155 23 38 47 85 53 104 7 19 20 46 29 60 18 27 52 111 69 173 6 20 16 52
21 70 20 66 13 105 -26 143 -34 35 -47 58 -60 109 -10 42 27 31 69 -20z m-899
-103 c-6 -9 -44 11 -44 23 0 22 24 23 36 1 6 -12 9 -23 8 -24z m121 18 c3 -5
-1 -10 -10 -10 -9 0 -13 5 -10 10 3 6 8 10 10 10 2 0 7 -4 10 -10z m482 -25
c9 -21 9 -25 -4 -25 -8 0 -23 5 -34 11 -16 8 -18 13 -8 25 17 21 32 17 46 -11z
m482 -139 c-9 -8 -10 -7 -5 7 3 10 7 24 7 30 1 7 3 4 6 -7 3 -10 -1 -23 -8
-30z m-2254 -236 c-3 -39 -4 -40 -25 -40 -26 0 -35 22 -21 49 16 29 48 24 46
-9z m640 -120 c4 -6 -12 -10 -42 -9 -39 1 -43 3 -23 9 36 11 58 11 65 0z
m1135 -220 c0 -11 -7 -20 -15 -20 -13 0 -13 3 -3 20 7 11 14 20 15 20 2 0 3
-9 3 -20z m-28 -52 c-7 -7 -12 -8 -12 -2 0 14 12 26 19 19 2 -3 -1 -11 -7 -17z
m41 -81 c-2 -32 -59 -117 -79 -117 -4 0 -4 24 -1 53 5 41 12 57 34 74 34 28
49 24 46 -10z"/>
<path d="M0 1870 c0 -110 3 -114 64 -90 25 9 26 13 26 88 0 75 -1 79 -25 90
-14 7 -35 12 -45 12 -19 0 -20 -7 -20 -100z"/>
<path d="M7 1503 c-16 -16 -6 -67 18 -89 14 -13 25 -28 25 -33 0 -6 -11 -13
-25 -17 -20 -5 -25 -12 -25 -36 0 -30 1 -30 36 -25 20 3 39 9 43 12 3 4 7 44
7 90 l1 84 -30 10 c-35 13 -41 13 -50 4z"/>
<path d="M13 584 c-14 -6 -19 -234 -5 -234 4 0 23 5 43 10 54 15 70 39 74 111
3 53 1 66 -18 88 -21 25 -66 36 -94 25z"/>
</g>
</svg>
